<?xml version="1.0" standalone="no"?>
<!DOCTYPE svg PUBLIC "-//W3C//DTD SVG 20010904//EN"
 "http://www.w3.org/TR/2001/REC-SVG-20010904/DTD/svg10.dtd">
<svg version="1.0" xmlns="http://www.w3.org/2000/svg"
 width="960.000000pt" height="480.000000pt" viewBox="0 0 960.000000 480.000000"
 preserveAspectRatio="xMidYMid meet">

<g transform="translate(0.000000,480.000000) scale(0.100000,-0.100000)"
fill="#000000" stroke="none">
<path d="M4740 2400 c0 -1433 3 -2160 10 -2160 7 0 10 727 10 2160 0 1433 -3
2160 -10 2160 -7 0 -10 -727 -10 -2160z"/>
<path d="M6760 3674 c-333 -43 -585 -166 -803 -393 -177 -185 -280 -381 -334
-631 -25 -119 -25 -391 1 -510 113 -522 516 -912 1039 -1005 142 -25 383 -17
523 19 590 148 999 695 971 1296 -16 333 -139 612 -377 850 -239 240 -527 364
-865 375 -66 2 -136 1 -155 -1z m316 -129 c379 -67 693 -308 861 -661 68 -144
95 -260 100 -439 3 -86 1 -180 -6 -221 -98 -635 -691 -1075 -1321 -980 -631
96 -1076 685 -986 1306 74 506 433 888 931 990 114 23 302 25 421 5z"/>
<path d="M6765 3503 c-440 -52 -799 -340 -940 -753 -64 -187 -72 -438 -21
-635 31 -119 114 -293 185 -386 167 -219 415 -373 684 -424 104 -20 311 -19
417 1 364 69 685 335 820 680 52 133 70 222 77 369 25 572 -400 1073 -969
1145 -79 10 -188 11 -253 3z m285 -92 c59 -27 66 -96 15 -143 l-25 -23 25 -54
c14 -29 25 -55 25 -57 0 -2 -13 -4 -28 -4 -25 0 -32 8 -57 60 -16 33 -34 60
-41 60 -6 0 -25 3 -42 6 l-31 6 -7 -61 c-6 -55 -9 -61 -30 -61 -12 0 -25 3
-27 8 -5 8 12 259 18 279 6 18 160 6 205 -16z m-380 -146 l114 -114 -29 -11
c-25 -9 -32 -7 -56 16 -30 29 -51 29 -121 0 -31 -13 -37 -22 -43 -55 -5 -32
-12 -42 -36 -50 -16 -5 -29 -7 -29 -4 0 3 9 75 21 161 19 146 27 171 54 172 6
0 62 -52 125 -115z m627 82 l22 -12 -59 -130 c-32 -71 -63 -131 -67 -132 -5
-2 -17 3 -28 11 -18 13 -16 19 41 145 32 72 61 131 64 131 3 -1 15 -6 27 -13z
m-947 -142 c42 -44 33 -86 -30 -150 l-54 -55 38 -39 c39 -40 43 -65 11 -78
-12 -4 -46 25 -115 98 l-98 104 51 54 c93 96 151 115 197 66z m1168 11 c34
-18 65 -51 86 -93 23 -46 21 -70 -8 -75 -19 -4 -25 1 -36 31 -16 48 -58 91
-87 91 -36 0 -28 -24 27 -85 42 -46 50 -62 50 -93 0 -39 -24 -72 -63 -85 -54
-19 -153 50 -183 129 -18 47 -14 60 20 66 14 2 22 -7 32 -37 23 -64 77 -112
114 -100 27 8 26 47 -1 71 -40 35 -79 97 -79 125 0 33 40 69 77 69 13 0 36 -6
51 -14z m-467 -171 c213 -55 403 -233 472 -443 125 -378 -96 -777 -485 -877
-78 -21 -244 -21 -323 0 -136 35 -276 124 -367 233 -48 58 -113 187 -133 267
-20 77 -20 234 -1 316 26 113 83 221 163 310 85 94 253 185 385 209 71 12 210
5 289 -15z m-801 -1205 c11 -11 20 -28 20 -37 -1 -13 -5 -10 -16 10 -15 28
-44 37 -44 13 0 -7 7 -19 15 -26 20 -16 19 -56 -1 -64 -8 -3 -24 -1 -34 4 -31
17 -54 70 -30 70 6 0 10 -8 10 -19 0 -24 25 -45 46 -37 14 5 14 10 -5 42 -17
28 -19 39 -10 50 15 19 25 18 49 -6z m1326 -15 l39 -34 -52 -1 c-29 0 -53 -2
-53 -5 0 -3 12 -17 28 -30 15 -13 22 -25 16 -25 -6 0 -28 16 -50 35 l-39 34
53 1 c28 0 52 2 52 5 0 3 -12 17 -27 30 -16 13 -23 25 -17 25 6 0 28 -16 50
-35z m-98 -94 c18 -22 32 -43 32 -47 0 -10 -39 27 -62 59 -30 42 -5 32 30 -12z
m-1128 13 c0 -3 -8 -31 -17 -62 -11 -38 -18 -50 -21 -37 -6 32 -41 63 -65 59
-12 -2 1 7 28 20 50 25 75 31 75 20z m1074 -60 c45 -25 62 -42 30 -30 -24 9
-64 -20 -64 -46 0 -40 -18 -5 -25 50 -4 31 -3 52 3 52 5 0 30 -12 56 -26z
m-1004 10 c0 -11 -62 -95 -67 -90 -7 6 49 96 60 96 4 0 7 -3 7 -6z m54 -81
l13 -48 17 33 c9 17 18 32 19 32 2 0 26 -7 53 -16 56 -19 82 -38 45 -32 -19 2
-26 -4 -39 -37 -18 -47 -20 -50 -27 -43 -3 3 2 24 11 47 9 23 15 43 13 44 -2
1 -13 7 -24 13 -18 10 -23 6 -47 -34 l-26 -45 -12 44 c-6 24 -12 49 -14 54 -1
6 -10 -5 -20 -22 -9 -18 -21 -33 -27 -33 -6 0 2 22 18 49 15 28 29 48 31 46 2
-2 9 -25 16 -52z m857 -5 c10 -21 15 -38 9 -38 -6 0 -16 11 -22 25 -15 34 -28
31 -28 -5 l0 -31 -30 16 c-34 18 -36 15 -15 -25 9 -17 12 -30 7 -30 -11 0 -56
89 -49 97 3 3 16 -2 29 -11 32 -23 48 -20 48 8 0 13 3 32 6 41 8 19 12 15 45
-47z m-151 -23 c10 -12 10 -18 0 -30 -10 -13 -10 -19 5 -35 10 -11 13 -20 8
-20 -6 0 -16 7 -23 15 -21 25 -56 15 -52 -14 6 -37 -15 -15 -24 26 -12 55 -11
56 16 64 41 11 57 10 70 -6z m-152 -28 c-41 -12 -51 -37 -15 -38 l22 0 -22 -9
c-13 -5 -23 -17 -23 -26 0 -13 8 -15 40 -12 22 2 40 0 40 -4 0 -5 -6 -8 -14
-8 -7 0 -27 -3 -43 -6 -30 -6 -30 -5 -37 47 -8 60 -1 69 54 68 l35 -2 -37 -10z
m-108 -12 c10 -12 7 -13 -22 -9 -45 8 -66 -15 -49 -52 8 -19 17 -25 38 -22 28
3 45 28 19 28 -9 0 -16 5 -16 10 0 16 40 11 47 -5 7 -19 -24 -55 -46 -55 -29
0 -61 30 -61 57 0 51 60 84 90 48z m-180 -31 c0 -2 -9 -4 -20 -4 -11 0 -20 4
-20 9 0 5 9 7 20 4 11 -3 20 -7 20 -9z"/>
<path d="M6897 3353 c-3 -15 -2 -32 2 -36 5 -4 37 -7 72 -5 53 2 64 6 67 22 5
27 -6 33 -74 40 -61 7 -62 7 -67 -21z"/>
<path d="M6556 3268 c-13 -49 -8 -61 22 -53 42 10 44 19 13 49 l-28 27 -7 -23z"/>
<path d="M6230 3134 l-50 -47 22 -24 22 -23 48 47 c53 52 58 67 28 83 -17 9
-27 4 -70 -36z"/>
<path d="M6816 3008 c-2 -7 -9 -56 -16 -108 -17 -134 -65 -297 -137 -467 -4
-10 43 -13 217 -13 174 0 221 3 217 13 -40 87 -81 203 -101 283 -21 82 -56
268 -56 297 0 13 -120 8 -124 -5z"/>
<path d="M6986 3003 c-6 -6 -3 -28 30 -189 64 -320 156 -485 370 -662 l52 -42
20 48 c68 161 54 381 -35 542 -53 95 -161 198 -253 243 -79 38 -174 69 -184
60z"/>
<path d="M6673 2981 c-92 -34 -157 -75 -229 -146 -78 -78 -131 -164 -165 -270
-33 -98 -33 -251 -2 -350 32 -99 35 -102 69 -80 53 35 202 190 242 253 76 118
142 316 176 530 l13 82 -26 0 c-14 -1 -49 -9 -78 -19z"/>
<path d="M6599 2323 c-24 -38 -90 -115 -146 -172 l-102 -104 19 -26 c31 -44
163 -161 181 -161 2 0 5 30 6 66 2 119 73 223 189 280 51 25 70 29 144 29 71
0 94 -4 140 -26 108 -51 183 -155 196 -271 4 -32 9 -58 11 -58 12 0 98 78 135
122 l41 49 -44 36 c-74 62 -148 144 -202 226 l-52 77 -236 0 -237 0 -43 -67z"/>
<path d="M6800 2185 c-103 -33 -167 -127 -177 -257 -4 -47 -1 -82 6 -95 20
-39 101 -58 251 -58 117 0 143 3 200 24 36 13 68 29 72 35 26 39 -7 197 -55
265 -60 84 -189 121 -297 86z m109 -99 c27 -43 26 -76 -1 -129 l-21 -42 -18
40 c-22 51 -23 88 -3 131 9 19 18 34 19 34 2 0 13 -15 24 -34z m-89 -106 c11
-6 25 -20 31 -32 12 -22 12 -22 -14 -5 -37 24 -50 22 -43 -8 5 -20 3 -25 -13
-25 -27 0 -44 25 -37 55 7 27 41 34 76 15z m216 -15 c7 -30 -10 -55 -37 -55
-16 0 -18 5 -13 25 7 30 -10 33 -45 9 -22 -16 -23 -16 -12 4 15 27 39 41 73
42 21 0 29 -6 34 -25z m-130 -86 c10 -17 -13 -36 -27 -22 -12 12 -4 33 11 33
5 0 12 -5 16 -11z"/>
<path d="M6300 1720 c-12 -7 -12 -12 -2 -22 10 -10 15 -10 22 2 19 29 9 39
-20 20z"/>
<path d="M7380 1670 c0 -22 7 -25 29 -11 11 7 9 11 -8 20 -18 10 -21 9 -21 -9z"/>
<path d="M7130 1581 c-33 -9 -34 -37 0 -33 13 1 29 7 34 12 15 15 -6 28 -34
21z"/>
<path d="M2888 3550 c-34 -36 -38 -47 -38 -90 0 -31 10 -74 27 -115 26 -63 26
-68 14 -128 -7 -34 -17 -67 -22 -73 -4 -5 -15 -36 -23 -67 -8 -32 -18 -62 -21
-67 -3 -5 -8 -23 -10 -38 -8 -64 -38 -149 -62 -177 -19 -21 -28 -26 -31 -16
-9 27 -92 90 -129 97 -59 11 -133 -60 -133 -128 0 -16 12 -41 29 -60 35 -40
27 -66 -27 -95 -26 -13 -52 -43 -90 -103 -29 -47 -57 -95 -62 -106 -5 -12 -27
-46 -49 -74 -21 -29 -53 -81 -70 -115 -52 -108 -104 -153 -196 -170 -34 -6
-37 -8 -21 -17 10 -6 37 -8 60 -5 35 5 38 4 19 -5 -51 -25 -10 -36 49 -13 13
5 15 2 11 -14 -7 -29 12 -26 34 5 19 26 20 26 52 9 25 -12 36 -14 45 -5 8 8 7
14 -6 21 -22 12 -24 66 -5 112 8 18 43 58 79 89 36 32 73 72 81 90 9 18 30 46
48 62 31 29 32 29 46 10 18 -24 57 -110 66 -146 7 -28 -7 -50 -48 -73 -13 -8
-19 -27 -23 -68 -4 -51 -8 -60 -33 -72 -15 -8 -45 -31 -66 -50 -21 -19 -41
-35 -44 -35 -4 0 -31 -29 -60 -65 -30 -36 -63 -68 -74 -71 -11 -4 -29 -14 -40
-24 -11 -10 -49 -32 -85 -50 -36 -18 -90 -50 -120 -70 -65 -44 -190 -162 -190
-179 0 -6 -11 -11 -24 -11 -13 0 -27 -7 -30 -16 -8 -20 -26 -9 -26 17 0 10 -5
19 -11 19 -6 0 -8 -11 -4 -29 10 -45 -27 -77 -115 -100 -39 -10 -80 -25 -91
-35 -19 -16 -19 -17 -2 -47 26 -45 57 -63 95 -54 18 3 56 9 83 12 46 5 55 10
115 73 63 66 112 100 145 100 8 0 40 20 69 44 30 24 85 61 123 82 37 20 97 57
133 82 35 24 110 66 165 93 55 27 138 69 185 94 47 25 92 44 100 41 91 -30
198 -70 257 -95 40 -17 103 -38 140 -46 99 -23 118 -32 225 -112 53 -40 100
-73 105 -73 5 0 36 -20 69 -45 32 -24 68 -45 78 -45 20 0 146 -126 146 -146 0
-7 9 -22 19 -35 l19 -24 29 26 c15 15 60 47 98 72 39 25 90 66 115 92 37 38
42 47 30 55 -21 14 -52 12 -75 -4 -30 -20 -75 -27 -122 -19 -40 8 -41 9 -25
29 10 11 26 26 37 32 17 10 17 11 3 12 -9 0 -33 -11 -53 -24 -33 -23 -38 -24
-68 -11 -17 7 -32 20 -32 27 0 30 -386 328 -424 328 -5 0 -43 26 -83 59 -40
32 -101 73 -135 90 -57 28 -63 34 -63 62 0 23 -7 34 -30 47 -44 25 -53 56 -39
137 16 96 7 207 -24 275 -38 83 -42 127 -18 189 12 28 21 66 21 84 0 34 50
230 67 263 9 17 25 179 26 261 1 28 4 32 36 37 86 14 137 117 96 196 -24 47
-66 70 -126 70 -48 0 -55 -3 -91 -40z"/>
</g>
</svg>
